<svg width="1080" height="180" viewBox="0 0 1080 180" fill="none" xmlns="http://www.w3.org/2000/svg">
<path d="M0 0H1080V180H0V0Z" fill="white"/>
<path fill-rule="evenodd" clip-rule="evenodd" d="M359.264 14.0103V122.936C359.264 146.892 341.694 166.516 320.245 166.516V144.701C331.125 144.701 339.777 135.038 339.777 122.886V14.0103H359.264ZM715.476 35.8252H759.49V14.0601H652.198V35.8252H695.944V166.566H715.476V35.8252ZM593.379 14.0103V122.936C593.379 135.088 584.728 144.751 573.847 144.751C562.967 144.751 554.315 135.088 554.315 122.936V57.5903C554.315 33.6337 536.746 14.0103 515.296 14.0103C493.847 14.0103 476.277 33.6337 476.277 57.5903V122.985C476.277 135.138 467.626 144.8 456.745 144.8C445.864 144.8 437.213 135.138 437.213 122.985V14.0103H417.681V122.936C417.681 146.892 435.251 166.516 456.7 166.516C478.15 166.516 495.72 146.892 495.72 122.936V57.5903C495.72 45.4377 504.371 35.7754 515.252 35.7754C526.132 35.7754 534.784 45.4377 534.784 57.5903V122.985C534.784 146.942 552.353 166.566 573.803 166.566C595.252 166.566 612.822 146.942 612.822 122.985V14.0103H593.379Z" fill="black"/>
</svg>
