<svg width="801" height="312" viewBox="0 0 801 312" fill="none" xmlns="http://www.w3.org/2000/svg">
<path fill-rule="evenodd" clip-rule="evenodd" d="M400.264 80.0103V188.936C400.264 212.892 382.694 232.516 361.245 232.516V210.701C372.125 210.701 380.777 201.038 380.777 188.886V80.0103H400.264ZM756.476 101.825H800.49V80.0601H693.198V101.825H736.944V232.566H756.476V101.825ZM634.379 80.0103V188.936C634.379 201.088 625.728 210.751 614.847 210.751C603.967 210.751 595.315 201.088 595.315 188.936V123.59C595.315 99.6337 577.746 80.0103 556.296 80.0103C534.847 80.0103 517.277 99.6337 517.277 123.59V188.985C517.277 201.138 508.626 210.8 497.745 210.8C486.864 210.8 478.213 201.138 478.213 188.985V80.0103H458.681V188.936C458.681 212.892 476.251 232.516 497.7 232.516C519.15 232.516 536.72 212.892 536.72 188.936V123.59C536.72 111.438 545.371 101.775 556.252 101.775C567.132 101.775 575.784 111.438 575.784 123.59V188.985C575.784 212.942 593.353 232.566 614.803 232.566C636.252 232.566 653.822 212.942 653.822 188.985V80.0103H634.379Z" fill="black"/>
<path fill-rule="evenodd" clip-rule="evenodd" d="M160.491 84.3434L160.224 0.619781H118.395L118.662 84.3434L139.577 116.418L160.491 84.3434ZM118.662 227.834V311.856H160.491V227.834L139.577 195.759L118.662 227.834Z" fill="white"/>
<path fill-rule="evenodd" clip-rule="evenodd" d="M160.491 227.834L204.55 295.719L238.262 268.326L194.204 200.441L160.491 188.288V227.834ZM118.663 84.3433L74.3368 16.458L40.6241 43.8512L84.6824 111.687L118.663 123.839V84.3433Z" fill="#00F2E6"/>
<path fill-rule="evenodd" clip-rule="evenodd" d="M84.6824 111.737L13.3329 85.8874L0.48999 130.065L71.8395 156.213L105.552 143.762L84.6824 111.737ZM173.289 168.366L194.204 200.441L265.553 226.29L278.396 182.112L207.047 156.263L173.289 168.366Z" fill="#00B9F1"/>
<path fill-rule="evenodd" clip-rule="evenodd" d="M207.002 156.263L278.352 130.115L265.509 85.9371L194.159 111.786L173.245 143.861L207.002 156.263ZM71.8395 156.263L0.48999 182.112L13.3329 226.29L84.6824 200.441L105.597 168.366L71.8395 156.263Z" fill="#D63AFF"/>
<path fill-rule="evenodd" clip-rule="evenodd" d="M84.6824 200.441L40.6241 268.326L74.3368 295.719L118.663 227.834V188.288L84.6824 200.441ZM194.204 111.737L238.262 43.8512L204.55 16.458L160.491 84.2935V123.839L194.204 111.737Z" fill="#FB015B"/>
</svg>
